<?xml version="1.0" encoding="UTF-8"?>
<svg width="9px" height="16px" viewBox="0 0 9 16" version="1.1" xmlns="http://www.w3.org/2000/svg" xmlns:xlink="http://www.w3.org/1999/xlink">
    <!-- Generator: Sketch 45.1 (43504) - http://www.bohemiancoding.com/sketch -->
    <title>Shape</title>
    <desc>Created with Sketch.</desc>
    <defs></defs>
    <g id="Page-1" stroke="none" stroke-width="1" fill="none" fill-rule="evenodd">
        <g id="Síða-2" transform="translate(-1413.000000, -542.000000)" fill-rule="nonzero" fill="#E91E63">
            <g id="FRONT" transform="translate(-10331.000000, -5452.000000)">
                <g id="Group-2">
                    <g id="facebook55" transform="translate(11744.000000, 5994.000000)">
                        <path d="M8.19829036,0.0032785293 L6.15494698,0 C3.85932076,0 2.37578626,1.52205723 2.37578626,3.87784445 L2.37578626,5.66579041 L0.321295871,5.66579041 C0.14376351,5.66579041 0,5.80971784 0,5.9872502 L0,8.57778013 C0,8.75531249 0.143927436,8.899076 0.321295871,8.899076 L2.37578626,8.899076 L2.37578626,15.4358077 C2.37578626,15.6133401 2.51954977,15.7571036 2.69708213,15.7571036 L5.37760768,15.7571036 C5.55514004,15.7571036 5.69890355,15.6131761 5.69890355,15.4358077 L5.69890355,8.899076 L8.10108197,8.899076 C8.27861433,8.899076 8.42237784,8.75531249 8.42237784,8.57778013 L8.4233614,5.9872502 C8.4233614,5.90200844 8.38942862,5.82037306 8.32926761,5.76004812 C8.26910659,5.69972318 8.18714336,5.66579041 8.1019016,5.66579041 L5.69890355,5.66579041 L5.69890355,4.15012631 C5.69890355,3.4216371 5.87250168,3.051819 6.82147198,3.051819 L8.19796251,3.05132722 C8.37533094,3.05132722 8.51909445,2.90739978 8.51909445,2.73003135 L8.51909445,0.3245744 C8.51909445,0.147369892 8.37549487,0.00360638223 8.19829036,0.0032785293 Z" id="Shape"></path>
                    </g>
                </g>
            </g>
        </g>
    </g>
</svg>