<?xml version="1.0" encoding="UTF-8"?>
<svg width="17px" height="16px" viewBox="0 0 17 16" version="1.1" xmlns="http://www.w3.org/2000/svg" xmlns:xlink="http://www.w3.org/1999/xlink">
    <!-- Generator: Sketch 45.1 (43504) - http://www.bohemiancoding.com/sketch -->
    <title>Shape</title>
    <desc>Created with Sketch.</desc>
    <defs></defs>
    <g id="Page-1" stroke="none" stroke-width="1" fill="none" fill-rule="evenodd">
        <g id="Síða-2" transform="translate(-1409.000000, -613.000000)" fill-rule="nonzero" fill="#E91E63">
            <g id="FRONT" transform="translate(-10331.000000, -5452.000000)">
                <g id="Group-2">
                    <g id="github-logo" transform="translate(11740.000000, 6065.000000)">
                        <path d="M15.3011434,4.0842742 C14.5678231,2.8278161 13.5731209,1.83307648 12.316775,1.09983093 C11.0602421,0.366547977 9.68848273,0 8.20052458,0 C6.71275343,0 5.34054531,0.366660174 4.0842742,1.09983093 C2.8278161,1.83303908 1.83315127,2.8278161 1.09983093,4.0842742 C0.366622775,5.3406949 0,6.71271603 0,8.20030019 C0,9.98722625 0.521342598,11.5940759 1.56428959,13.0212607 C2.60712438,14.4485576 3.95431254,15.4361914 5.60574189,15.9842743 C5.79797295,16.019953 5.94027629,15.9948582 6.03280151,15.9096258 C6.12536413,15.8242812 6.17158934,15.7173947 6.17158934,15.5894152 C6.17158934,15.5680604 6.16975679,15.3759415 6.16620388,15.0128343 C6.16253878,14.649727 6.16081842,14.3329571 6.16081842,14.0626743 L5.91521893,14.1051596 C5.75862916,14.1338447 5.56108744,14.1459993 5.32259377,14.1425586 C5.0842123,14.1392301 4.83674286,14.1142476 4.58052205,14.067798 C4.32418904,14.0217597 4.08577016,13.9149855 3.86507844,13.7476996 C3.64449891,13.5804137 3.48790913,13.3614423 3.39534651,13.0911221 L3.28857226,12.8454104 C3.21740189,12.681827 3.10535437,12.5001051 2.9522801,12.3009178 C2.79920584,12.1015435 2.64441122,11.9663834 2.48782144,11.895213 L2.41306077,11.841695 C2.36324525,11.8061285 2.31702004,11.7632318 2.27427293,11.7134537 C2.23156323,11.6636756 2.19958705,11.61386 2.1782322,11.5639697 C2.15683995,11.514042 2.1745671,11.4730901 2.23160063,11.4409643 C2.28863416,11.4088385 2.39170592,11.3932431 2.54126467,11.3932431 L2.75473838,11.4251445 C2.89711652,11.45368 3.07322859,11.5389124 3.28329899,11.6813653 C3.4932572,11.823706 3.66585376,12.0087565 3.80112608,12.2364418 C3.96493387,12.5283787 4.1622886,12.7508282 4.39375125,12.9039025 C4.6250269,13.0569767 4.85820991,13.133383 5.09307587,13.133383 C5.32794183,13.133383 5.53079422,13.115581 5.70170782,13.0801641 C5.87243443,13.0445603 6.03261452,12.9910422 6.18217327,12.9199093 C6.24623782,12.4427723 6.42066694,12.0762244 6.70531102,11.8200035 C6.29960625,11.7773686 5.93485343,11.7131545 5.61086556,11.6277725 C5.28706468,11.5422783 4.95245548,11.4035278 4.60726236,11.2111472 C4.26188224,11.0190283 3.9753682,10.7804599 3.74764546,10.4958532 C3.51988531,10.2110969 3.33296492,9.83725611 3.18714607,9.3746674 C3.04125242,8.9118917 2.96828689,8.37805782 2.96828689,7.77301617 C2.96828689,6.91152932 3.24952766,6.17843337 3.81189701,5.57331692 C3.54845818,4.92564037 3.57332854,4.19957544 3.88658289,3.39519692 C4.09302558,3.33105757 4.39917411,3.37919013 4.80487888,3.53929541 C5.21065845,3.6994755 5.50775641,3.83669257 5.69647196,3.95046044 C5.88518751,4.06419092 6.03639182,4.16056824 6.15030929,4.23873223 C6.81245927,4.05371919 7.4957771,3.96119397 8.20044979,3.96119397 C8.90512247,3.96119397 9.5885899,4.05371919 10.2507773,4.23873223 L10.6565194,3.98258622 C10.9339829,3.81167261 11.2616359,3.65504544 11.638693,3.5126673 C12.0159745,3.37036396 12.3044707,3.33116976 12.5038824,3.39530911 C12.8240929,4.19972504 12.8526284,4.92575257 12.5891148,5.57342912 C13.1514467,6.17854556 13.4327997,6.91182851 13.4327997,7.77312837 C13.4327997,8.37817002 13.3595724,8.91368685 13.2139031,9.38001546 C13.0680469,9.84641887 12.8795183,10.2198857 12.6482426,10.5012012 C12.4167052,10.7824794 12.1283586,11.0191779 11.7831655,11.2112594 C11.4378976,11.4034904 11.1031762,11.5422409 10.7793753,11.6277351 C10.4554248,11.7132293 10.090672,11.7774808 9.68496722,11.8201905 C10.0549933,12.1404011 10.2400438,12.6458491 10.2400438,13.3363102 L10.2400438,15.589116 C10.2400438,15.7170956 10.2845486,15.8239446 10.3736331,15.9093266 C10.4626054,15.994559 10.6031136,16.0196538 10.7953447,15.9839377 C12.4469984,15.4359296 13.7941866,14.4482584 14.836984,13.0209615 C15.8796692,11.5937768 16.4011988,9.98692706 16.4011988,8.200001 C16.4008248,6.71260384 16.034015,5.3406949 15.3011434,4.0842742 Z" id="Shape"></path>
                    </g>
                </g>
            </g>
        </g>
    </g>
</svg>