<?xml version="1.0" encoding="UTF-8"?>
<svg width="16px" height="16px" viewBox="0 0 16 16" version="1.1" xmlns="http://www.w3.org/2000/svg" xmlns:xlink="http://www.w3.org/1999/xlink">
    <!-- Generator: Sketch 45.1 (43504) - http://www.bohemiancoding.com/sketch -->
    <title>icon</title>
    <desc>Created with Sketch.</desc>
    <defs></defs>
    <g id="Page-1" stroke="none" stroke-width="1" fill="none" fill-rule="evenodd">
        <g id="Síða-2" transform="translate(-1409.000000, -578.000000)" fill-rule="nonzero" fill="#E91E63">
            <g id="FRONT" transform="translate(-10331.000000, -5452.000000)">
                <g id="Group-2">
                    <g id="icon" transform="translate(11740.000000, 6030.000000)">
                        <path d="M12.3076923,4.30769231 C11.9686154,4.30769231 11.6923077,4.03138462 11.6923077,3.69230769 L11.6923077,2.46153846 C11.6923077,2.12246154 11.9686154,1.84615385 12.3076923,1.84615385 L13.5384615,1.84615385 C13.8775385,1.84615385 14.1538462,2.12246154 14.1538462,2.46153846 L14.1538462,3.69230769 C14.1538462,4.03138462 13.8775385,4.30769231 13.5384615,4.30769231 L12.3076923,4.30769231 Z" id="Shape"></path>
                        <path d="M8,5.65415385 C7.55323077,5.65415385 7.14092308,5.78523077 6.78584615,6.00061538 C6.89661538,5.96615385 7.01169231,5.94338462 7.13292308,5.94338462 C7.79015385,5.94338462 8.32246154,6.47569231 8.32246154,7.13353846 C8.32246154,7.78953846 7.79015385,8.32307692 7.13292308,8.32307692 C6.47569231,8.32307692 5.94338462,7.79015385 5.94338462,7.13353846 C5.94338462,7.01107692 5.96738462,6.896 6.00123077,6.78584615 C5.78461538,7.14092308 5.65415385,7.55323077 5.65415385,8 C5.65415385,9.29661538 6.70338462,10.3464615 8.00061538,10.3464615 C9.296,10.3464615 10.3470769,9.29723077 10.3470769,8 C10.3470769,6.70276923 9.29538462,5.65415385 8,5.65415385 Z" id="Shape"></path>
                        <path d="M8,4.30769231 C10.0387692,4.30769231 11.6923077,5.96061538 11.6923077,8 C11.6923077,10.0393846 10.0381538,11.6923077 8,11.6923077 C5.96123077,11.6923077 4.30769231,10.0393846 4.30769231,8 C4.30769231,5.96061538 5.96123077,4.30769231 8,4.30769231 L8,4.30769231 Z M8,3.07692308 C5.28553846,3.07692308 3.07692308,5.28553846 3.07692308,8 C3.07692308,10.7144615 5.28553846,12.9230769 8,12.9230769 C10.7144615,12.9230769 12.9230769,10.7144615 12.9230769,8 C12.9230769,5.28553846 10.7144615,3.07692308 8,3.07692308 L8,3.07692308 Z" id="Shape"></path>
                        <path d="M13,0 L3,0 C1.34276923,0 0,1.34276923 0,3 L0,13 C0,14.6572308 1.34276923,16 3,16 L13,16 C14.6572308,16 16,14.6572308 16,13 L16,3 C16,1.34276923 14.6572308,0 13,0 Z M14.7692308,5.53846154 L10.7464615,5.53846154 C11.3329231,6.19261538 11.6923077,7.05292308 11.6923077,8 C11.6923077,10.0393846 10.0381538,11.6923077 8,11.6923077 C5.96123077,11.6923077 4.30769231,10.0393846 4.30769231,8 C4.30769231,7.05292308 4.66707692,6.192 5.25353846,5.53846154 L1.23076923,5.53846154 L1.23076923,3 C1.23076923,2.02461538 2.02461538,1.23076923 3,1.23076923 L13,1.23076923 C13.976,1.23076923 14.7692308,2.02461538 14.7692308,3 L14.7692308,5.53846154 Z" id="Shape"></path>
                    </g>
                </g>
            </g>
        </g>
    </g>
</svg>